<?xml version="1.0" standalone="no"?>
<!DOCTYPE svg PUBLIC "-//W3C//DTD SVG 20010904//EN"
 "http://www.w3.org/TR/2001/REC-SVG-20010904/DTD/svg10.dtd">
<svg version="1.0" xmlns="http://www.w3.org/2000/svg"
 width="200.000000pt" height="200.000000pt" viewBox="0 0 200.000000 200.000000"
 preserveAspectRatio="xMidYMid meet">
<metadata>
Created by potrace 1.11, written by Peter Selinger 2001-2013
</metadata>
<g transform="translate(0.000000,200.000000) scale(0.100000,-0.100000)"
fill="#000000" stroke="none">
<path d="M0 1000 l0 -1000 1000 0 1000 0 0 1000 0 1000 -1000 0 -1000 0 0
-1000z m650 370 c0 -7 -215 -605 -245 -682 -8 -20 -40 -25 -33 -5 203 560 255
697 266 697 6 0 12 -4 12 -10z m216 -335 c68 -187 124 -346 124 -353 0 -8 -6
-12 -12 -10 -7 3 -64 144 -125 314 -62 170 -116 316 -119 324 -3 8 -35 -67
-72 -169 -37 -102 -73 -186 -79 -189 -22 -6 -15 17 58 218 79 217 77 212 91
208 6 -2 67 -157 134 -343z m274 5 l0 -339 117 -3 c84 -2 118 -7 121 -16 3
-10 -25 -12 -130 -10 l-133 3 -3 340 c-1 187 0 346 3 352 2 7 9 13 15 13 7 0
10 -113 10 -340z m301 317 c66 -35 102 -93 106 -170 4 -64 -10 -106 -36 -115
-11 -4 -12 1 -7 19 32 104 6 190 -68 234 -36 21 -55 25 -124 25 l-82 0 0 -286
0 -286 86 3 c82 4 87 5 115 37 32 36 36 60 14 101 -18 36 -35 43 -113 50 -84
8 -79 26 7 26 82 0 118 -20 140 -80 13 -32 13 -43 0 -78 -24 -68 -54 -82 -172
-82 l-102 0 -3 313 -2 312 98 0 c84 0 105 -3 143 -23z m-46 -73 c54 -25 82
-83 66 -139 -4 -17 -15 -32 -25 -33 -15 -3 -17 0 -10 20 27 76 -21 138 -106
138 -46 0 -67 9 -53 24 12 12 95 6 128 -10z m-660 -141 c39 -101 165 -453 165
-462 0 -6 -6 -11 -12 -11 -11 0 -41 77 -186 478 -7 19 25 14 33 -5z m713 -78
c20 -9 48 -26 61 -38 59 -54 78 -165 42 -244 -28 -59 -131 -131 -131 -90 0 6
17 21 37 32 111 59 110 239 -2 302 -31 18 -56 23 -112 23 -66 0 -92 8 -76 24
13 12 144 6 181 -9z m-693 -170 c0 -6 -42 -12 -95 -15 l-95 -5 -36 -100 c-22
-61 -42 -100 -50 -100 -8 0 -13 7 -11 15 4 18 71 200 78 212 8 12 209 5 209
-7z m33 -82 c3 -10 -22 -13 -102 -13 -98 0 -118 5 -99 24 13 12 196 2 201 -11z"/>
</g>
</svg>
